<svg width="387" height="26" viewBox="0 0 387 26" fill="none" xmlns="http://www.w3.org/2000/svg">
<g clip-path="url(#clip0_115_2652)">
<path d="M19.3676 24.1389C18.7827 24.5244 18.1283 24.712 17.4839 24.712C16.3536 24.712 15.2432 24.1439 14.579 23.0991L0 0.147461H8.24375L20.3789 19.2442C21.4149 20.8775 20.9638 23.0737 19.3676 24.1338V24.1389Z" fill="#00E95F"/>
<path d="M38.646 26.0004H30.4022L26.1093 19.2493L22.1882 13.0714L18.2671 6.89853L13.9792 0.147461H22.218L26.5059 6.89853L30.432 13.0714L34.3531 19.2493L38.646 26.0004Z" fill="#00E95F"/>
<path d="M52.6251 26H44.3814L32.2463 6.90323C31.2102 5.26999 31.6613 3.07373 33.2625 2.01365C34.8587 0.943419 37.0051 1.41006 38.0511 3.05345L52.6301 26.0051L52.6251 26Z" fill="#00E95F"/>
<path d="M68.8251 24.9555C71.3731 24.8946 73.8318 24.1186 75.3041 23.3324L74.1194 20.7862C73.1279 21.2274 71.1203 21.9629 68.7309 21.9629C63.7242 21.9629 60.0906 18.1081 60.0906 12.8025C60.0906 7.49705 63.7242 3.64219 68.7309 3.64219C71.1203 3.64219 73.1329 4.37766 74.1194 4.81894L75.3091 2.2727C73.8368 1.48144 71.3681 0.71047 68.8202 0.644531C61.9446 0.644531 56.338 6.09713 56.338 12.8025C56.338 19.508 61.9396 24.9555 68.8251 24.9555Z" fill="white"/>
<path d="M83.88 1.17188H80.4348V24.4228H83.88V1.17188Z" fill="white"/>
<path d="M108.74 1.17188H105.399V15.8964C105.399 18.96 102.965 21.1816 99.619 21.1816C96.2729 21.1816 93.8042 18.96 93.8042 15.8964V1.17188H90.4978V15.7899C90.4978 21.1157 93.9926 24.4228 99.6239 24.4228C105.255 24.4228 108.75 21.1157 108.75 15.7899V1.17188H108.74Z" fill="white"/>
<path d="M133.63 12.7975C133.605 9.54116 132.698 5.12837 128.529 2.62271C126.918 1.65899 125.099 1.16699 123.126 1.16699H115.308V24.4229H123.126C124.97 24.4229 126.943 23.8904 128.534 22.9672C131.771 21.0905 133.63 17.3828 133.63 12.8026V12.7975ZM127.077 19.9949C125.594 20.8268 124.137 21.1767 122.194 21.1767H118.754V4.41319H122.194C123.304 4.41319 125.416 4.56535 127.092 5.60515C129.139 6.87827 130.18 9.28248 130.18 12.7569C130.18 16.2314 129.104 18.8233 127.077 19.9899V19.9949Z" fill="white"/>
<path d="M151.476 18.1892L153.543 24.428H157.162L148.64 0.644531H144.645L136.128 24.428H139.747L141.814 18.1892H151.476ZM146.603 2.53645L150.757 15.6531H142.538L146.598 2.53645H146.603Z" fill="white"/>
<path d="M179.662 12.7975C179.637 9.54116 178.73 5.13344 174.561 2.62271C172.95 1.65899 171.131 1.16699 169.158 1.16699H161.34V24.4229H169.158C171.002 24.4229 172.97 23.8904 174.571 22.9672C177.808 21.0905 179.662 17.3828 179.662 12.8026V12.7975ZM173.114 19.9949C171.632 20.8268 170.174 21.1767 168.231 21.1767H164.791V4.41319H168.231C169.341 4.41319 171.453 4.56535 173.134 5.60515C175.181 6.87827 176.217 9.28248 176.217 12.7569C176.217 16.2314 175.141 18.8233 173.114 19.9899V19.9949Z" fill="white"/>
<path d="M197.334 0.538086C201.409 0.538086 204.785 3.99224 204.785 8.19708C204.785 11.2607 203.01 14.1112 200.19 15.2829L205.722 25.4679H200.086L195.213 15.851H191.143V25.4679H186.27V0.538086H197.339H197.334ZM191.138 11.3672H197.334C198.727 11.3672 199.982 9.69337 199.982 8.19708C199.982 5.59505 197.721 5.16899 195.808 5.16899H191.143V11.3672H191.138Z" fill="#00E95F"/>
<path d="M226.502 0.538086V5.16392H214.144V11.0426H224.693V15.5315H214.144V20.837H226.745V25.4679H209.271V0.538086H226.502Z" fill="#00E95F"/>
<path d="M235.97 0.538086L243.034 11.8237L246.237 17.5603H246.306L246.098 10.7585V0.538086H250.971V25.4679H245.959L238.86 13.533L235.658 8.08549H235.589L235.797 13.9286V25.4679H230.924V0.538086H235.97Z" fill="#00E95F"/>
<path d="M267.751 0C274.745 0 280.248 5.80765 280.248 12.929C280.248 20.4764 274.294 26 267.751 26C260.751 26 255.08 20.2684 255.08 12.929C255.08 5.58954 261.098 0 267.751 0ZM267.751 21.5466C272.138 21.5466 275.058 17.9504 275.058 12.929C275.058 7.90753 272.098 4.48888 267.572 4.48888C263.046 4.48888 260.231 8.04955 260.231 12.929C260.231 17.8084 263.26 21.5466 267.751 21.5466Z" fill="#00E95F"/>
<path d="M286.162 0.538086L292.046 19.1631H292.115L297.965 0.538086H303.08L294.376 25.4679H289.746L281.051 0.538086H286.162Z" fill="#00E95F"/>
<path d="M315.612 0L324.733 25.4674H319.578L317.491 19.1627H308.722L306.635 25.4674H301.484L310.595 0H315.607H315.612ZM309.906 15.1709H316.311L313.074 4.95045L309.906 15.1709Z" fill="#00E95F"/>
<path d="M337.225 0.538086C341.364 0.538086 344.711 3.24663 344.711 7.30438C344.711 10.9361 342.381 12.3613 341.092 12.6454C343.248 13.107 345.93 14.9228 345.93 18.3769C345.93 23.0789 342.624 25.4679 338.549 25.4679H327.271V0.538086H337.225ZM332.144 10.794H337.329C338.896 10.794 339.867 9.61729 339.867 8.08549C339.867 6.55369 338.717 5.16392 337.225 5.16392H332.144V10.789V10.794ZM338.549 20.837C339.942 20.837 341.052 19.3052 341.052 17.9509C341.052 16.2771 339.798 15.0648 338.132 15.0648H332.144V20.837H338.549Z" fill="#00E95F"/>
<path d="M354.907 0.538086V20.837H366.329V25.4679H350.035V0.538086H354.907Z" fill="#00E95F"/>
<path d="M386.762 0.538086V5.16392H374.404V11.0426H384.948V15.5315H374.404V20.837H387V25.4679H369.531V0.538086H386.762Z" fill="#00E95F"/>
</g>
<defs>
<clipPath id="clip0_115_2652">
<rect width="387" height="26" fill="white"/>
</clipPath>
</defs>
</svg>
