<svg width="331" height="55" viewBox="0 0 331 55" fill="none" xmlns="http://www.w3.org/2000/svg">
<g clip-path="url(#clip0_10_833)">
<path d="M41.3822 50.6373C40.1471 51.4317 38.7672 51.8226 37.4061 51.8226C35.0243 51.8226 32.6739 50.65 31.275 48.4938L0.5 1.11591H17.9039L43.5183 40.5439C45.7111 43.9168 44.7533 48.4497 41.3822 50.6373Z" fill="#00E95F"/>
<path d="M82.0816 54.4831H64.6777L55.6229 40.5502L47.3431 27.8026L39.0633 15.055L30.0085 1.11591H47.3998L56.4546 15.055L64.7407 27.8026L73.0268 40.5502L82.0816 54.4831Z" fill="#00E95F"/>
<path d="M111.59 54.483H94.1862L68.5719 15.0613C66.3853 11.6885 67.3431 7.15556 70.7143 4.96791C74.0854 2.76136 78.616 3.71963 80.8214 7.11143L111.59 54.4893V54.483Z" fill="#00E95F"/>
<path d="M133.77 24.8395C136.429 24.7765 139.007 23.9821 140.544 23.1814L139.303 20.5777C138.269 21.0253 136.171 21.7818 133.669 21.7818C128.439 21.7818 124.64 17.8479 124.64 12.426C124.64 7.00422 128.439 3.07025 133.669 3.07025C136.165 3.07025 138.269 3.82048 139.303 4.2744L140.544 1.67066C139 0.863692 136.429 0.0693311 133.758 0.00628662C126.574 0.00628662 120.714 5.57942 120.714 12.426C120.714 19.2727 126.568 24.8395 133.764 24.8458L133.77 24.8395Z" fill="#021731"/>
<path d="M149.511 0.542175H145.906V24.3036H149.511V0.542175Z" fill="#021731"/>
<path d="M175.484 0.542175H171.993V15.5909C171.993 18.7179 169.454 20.9875 165.951 20.9875C162.447 20.9875 159.87 18.7179 159.87 15.5909V0.542175H156.411V15.4837C156.411 20.9245 160.065 24.3036 165.944 24.3036C171.823 24.3036 175.478 20.9245 175.478 15.4837V0.542175H175.484Z" fill="#021731"/>
<path d="M201.496 12.4261C201.47 9.09731 200.519 4.58963 196.165 2.03003C194.482 1.04653 192.579 0.542175 190.519 0.542175H182.353V24.3036H190.519C192.447 24.3036 194.508 23.7615 196.171 22.8158C199.555 20.8992 201.496 17.1103 201.496 12.4261ZM194.646 19.7833C193.102 20.6281 191.577 20.9938 189.548 20.9938H185.951V3.85831H189.548C190.708 3.85831 192.913 4.01593 194.671 5.08138C196.814 6.38009 197.898 8.83883 197.898 12.3882C197.898 15.9376 196.776 18.5855 194.652 19.7833H194.646Z" fill="#021731"/>
<path d="M220.141 17.9298L222.302 24.3036H226.083L217.186 0H213.008L204.111 24.3036H207.891L210.053 17.9298H220.147H220.141ZM215.049 1.93547L219.391 15.3387H210.802L215.049 1.93547Z" fill="#021731"/>
<path d="M249.599 12.4261C249.574 9.09731 248.629 4.58963 244.268 2.03003C242.586 1.04653 240.683 0.542175 238.622 0.542175H230.456V24.3036H238.622C240.544 24.3036 242.611 23.7615 244.274 22.8158C247.658 20.8992 249.593 17.1103 249.593 12.4261H249.599ZM242.756 19.7833C241.206 20.6281 239.687 20.9938 237.652 20.9938H234.054V3.85831H237.652C238.811 3.85831 241.017 4.01593 242.775 5.08138C244.917 6.38009 246.001 8.83883 246.001 12.3882C246.001 15.9376 244.879 18.5855 242.756 19.7833Z" fill="#021731"/>
<path d="M132.29 28.9815C136.543 28.9815 140.072 32.512 140.072 36.8053C140.072 39.9323 138.219 42.845 135.27 44.0491L141.055 54.4578H135.163L130.072 44.6291H125.818V54.4578H120.727V28.9815H132.296H132.29ZM125.818 40.0458H132.29C133.745 40.0458 135.056 38.3373 135.056 36.8053C135.056 34.1512 132.693 33.7098 130.695 33.7098H125.818V40.0395V40.0458Z" fill="#00E95F"/>
<path d="M162.775 28.9815V33.7098H149.857V39.718H160.878V44.3013H149.857V49.7231H163.027V54.4578H144.766V28.9815H162.775Z" fill="#00E95F"/>
<path d="M172.668 28.9815L180.053 40.5186L183.399 46.3755H183.468L183.254 39.4217V28.9815H188.345V54.4578H183.102L175.686 42.265L172.34 36.6918H172.264L172.485 42.6622V54.4578H167.393V28.9815H172.668Z" fill="#00E95F"/>
<path d="M205.875 28.433C213.184 28.433 218.931 34.3655 218.931 41.6472C218.931 49.3638 212.712 55 205.875 55C198.566 55 192.636 49.1432 192.636 41.6472C192.636 34.1512 198.925 28.433 205.875 28.433ZM205.875 50.4545C210.456 50.4545 213.512 46.779 213.512 41.6472C213.512 36.5153 210.418 33.0227 205.692 33.0227C200.966 33.0227 198.017 36.6603 198.017 41.6472C198.017 46.634 201.181 50.4545 205.875 50.4545Z" fill="#00E95F"/>
<path d="M225.119 28.9815L231.269 48.0146H231.338L237.45 28.9815H242.8L233.701 54.4578H228.868L219.775 28.9815H225.119Z" fill="#00E95F"/>
<path d="M255.894 28.433L265.421 54.4578H260.034L257.853 48.0147H248.685L246.505 54.4578H241.124L250.651 28.433H255.887H255.894ZM249.927 43.9357H256.618L253.235 33.4892L249.927 43.9357Z" fill="#00E95F"/>
<path d="M278.484 28.9815C282.813 28.9815 286.303 31.7492 286.303 35.8975C286.303 39.6108 283.865 41.0671 282.523 41.3571C284.779 41.83 287.576 43.6898 287.576 47.214C287.576 52.018 284.117 54.4578 279.864 54.4578H268.08V28.9815H278.484ZM273.172 39.4595H278.591C280.229 39.4595 281.244 38.2553 281.244 36.6918C281.244 35.1283 280.046 33.7098 278.484 33.7098H273.172V39.4595ZM279.864 49.7231C281.319 49.7231 282.485 48.1596 282.485 46.7727C282.485 45.0642 281.174 43.8222 279.429 43.8222H273.172V49.7168H279.864V49.7231Z" fill="#00E95F"/>
<path d="M296.959 28.9815V49.7231H308.893V54.4578H291.867V28.9815H296.959Z" fill="#00E95F"/>
<path d="M330.248 28.9815V33.7098H317.33V39.718H328.351V44.3013H317.33V49.7231H330.5V54.4578H312.239V28.9815H330.248Z" fill="#00E95F"/>
</g>
<defs>
<clipPath id="clip0_10_833">
<rect width="330" height="55" fill="white" transform="translate(0.5)"/>
</clipPath>
</defs>
</svg>
