<svg width="28" height="29" viewBox="0 0 28 29" fill="none" xmlns="http://www.w3.org/2000/svg">
<g id="Group 30">
<path id="Vector" d="M14.1512 27.6549C12.1362 27.5136 10.2625 27.0303 8.43442 26.2781C8.01044 26.1049 7.44058 26.0593 7.00293 26.1824C5.01982 26.7568 3.06862 27.4178 1.09462 28.0333C0.875799 28.1017 0.620502 28.0515 0.38344 28.0561C0.387999 27.819 0.34241 27.5637 0.410793 27.3449C1.0308 25.4666 1.70096 23.6021 2.28905 21.7147C2.4167 21.3044 2.4167 20.7391 2.22979 20.3698C-1.82306 12.3143 2.83156 2.85005 11.7031 1.1587C18.856 -0.204401 25.9724 4.69183 27.2899 11.8812C28.4844 18.3821 24.4725 24.9834 18.1266 26.8662C16.8364 27.2492 15.4779 27.3996 14.1512 27.6549ZM4.45452 24.0716C5.61247 23.7069 6.59263 23.365 7.59558 23.1051C7.90559 23.0231 8.32956 23.0641 8.6031 23.2191C10.0574 24.0306 11.5892 24.5275 13.2531 24.6962C19.2845 25.3162 24.8874 20.1464 24.7278 14.0786C24.5592 7.7554 18.97 3.00049 12.697 3.84388C4.97879 4.87875 1.05359 13.3902 5.22953 19.9869C5.43468 20.3105 5.47571 20.8439 5.37997 21.2269C5.16114 22.1295 4.81011 22.9957 4.44996 24.0716H4.45452Z" fill="white"/>
<path id="Vector_2" d="M7.41788 11.4706C7.41788 9.37349 8.29774 8.32039 10.1076 8.03318C10.7139 7.93744 11.1015 8.14715 11.334 8.68054C11.6941 9.51025 12.1454 10.3263 12.3369 11.1925C12.4372 11.6392 12.1865 12.3048 11.8673 12.6741C11.416 13.1893 11.4388 13.5631 11.8856 13.9506C12.9888 14.908 14.1103 15.8471 15.2364 16.7725C15.6102 17.0825 15.9567 17.0005 16.2347 16.5856C16.408 16.3258 16.6359 16.1069 16.8137 15.8517C17.142 15.3775 17.5705 15.2818 18.072 15.5097C18.8926 15.8881 19.736 16.2346 20.511 16.6905C20.7845 16.85 21.0307 17.2968 21.0398 17.6159C21.0945 19.4213 19.3895 20.8072 17.3836 20.5701C15.5281 20.3513 13.8094 19.6948 12.3096 18.5642C10.29 17.0415 8.66245 15.1815 7.69141 12.8063C7.59567 12.5738 7.53185 12.3231 7.48626 12.0769C7.44067 11.8262 7.42699 11.5709 7.41788 11.466V11.4706Z" fill="white"/>
</g>
</svg>
