<svg width="31" height="23" viewBox="0 0 31 23" fill="none" xmlns="http://www.w3.org/2000/svg">
<path id="Vector" d="M15.4397 22.2653C11.0809 22.2653 6.72669 22.2653 2.3679 22.2653C0.979977 22.2653 0.639801 21.9133 0.639801 20.4776C0.639801 14.5263 0.639801 8.575 0.639801 2.62833C0.639801 1.25745 1.00266 0.873047 2.30893 0.873047C11.1172 0.873047 19.921 0.873047 28.7247 0.873047C30.0401 0.873047 30.4029 1.25282 30.4029 2.61444C30.4029 8.59353 30.4029 14.5772 30.4029 20.5563C30.4029 21.9041 30.0401 22.2607 28.6885 22.2607C24.2707 22.2607 19.8529 22.2607 15.4352 22.2607L15.4397 22.2653ZM5.21177 3.33693C5.32516 3.52682 5.3433 3.59166 5.38866 3.62871C8.6226 6.50941 11.8656 9.38549 15.0859 12.2801C15.5667 12.7154 15.8389 12.4283 16.1654 12.1319C19.2588 9.3716 22.3521 6.6113 25.4364 3.84175C25.5724 3.7167 25.6632 3.54071 25.8174 3.3323H5.21177V3.33693ZM18.6011 13.1832C18.016 13.6927 17.4808 14.1558 16.9546 14.6236C15.662 15.7675 15.4397 15.7675 14.1743 14.6467C13.6255 14.1651 13.0721 13.688 12.487 13.1832C10.0196 15.3785 7.62021 17.5182 5.08477 19.769H25.9807C23.4271 17.4904 21.0322 15.3553 18.6011 13.1832ZM3.06186 18.3657C5.70162 16.0176 8.1781 13.8131 10.7045 11.5622C8.11914 9.26507 5.65626 7.0837 3.06186 4.78192V18.3657ZM27.9945 4.77265C25.3729 7.11612 22.9009 9.32065 20.3791 11.5715C22.9463 13.8594 25.4001 16.0454 27.9945 18.3518V4.77265Z" fill="white"/>
</svg>
