<svg width="27" height="25" viewBox="0 0 27 25" fill="none" xmlns="http://www.w3.org/2000/svg">
<path id="Vector" d="M0.597046 7.33544C0.597046 3.46105 2.27903 1.51543 5.73887 0.984809C6.89796 0.807935 7.63873 1.19537 8.0832 2.18082C8.77168 3.71373 9.63446 5.22137 10.0005 6.82166C10.1922 7.64708 9.71289 8.87677 9.10285 9.559C8.24006 10.5108 8.28364 11.2014 9.13771 11.9173C11.2467 13.6861 13.3906 15.4211 15.5432 17.1309C16.2578 17.7036 16.9202 17.552 17.4518 16.7856C17.7829 16.3055 18.2187 15.9012 18.5586 15.4295C19.1861 14.5536 20.0053 14.3767 20.9639 14.7979C22.5326 15.4969 24.1449 16.137 25.6264 16.9793C26.1493 17.2741 26.6199 18.0995 26.6373 18.6891C26.7419 22.0244 23.4825 24.5849 19.6479 24.1469C16.101 23.7426 12.8154 22.5298 9.9482 20.441C6.08747 17.6278 2.97623 14.1914 1.11994 9.80326C0.936929 9.37371 0.81492 8.91047 0.727771 8.45565C0.640621 7.9924 0.614476 7.52074 0.597046 7.32702V7.33544Z" fill="white"/>
</svg>
